<svg xmlns="http://www.w3.org/2000/svg" width="232" height="208" fill="none" viewBox="0 0 232 208">
  <g clip-path="url(#a)">
    <path fill="#0E0D0D" d="M102.75 6.5H159l.25 9.5v6.5l3.25.25 17 3 35 6.25v30l-.5 2.25-1.25 1h-3l-2.25-.75-3.5-2.25V63l2.5 9.25 3 10.25 1.75 5.75v.5l3.25.5 1.75.25h5l2.25-.25.5.5 1 2.75v2.25l-2 7.5-5 17.75-5 18-.75 3.5.5 5.5-2.5 1.25-7.5 2.5-10.25 3.5-9 3-6 1.75-2.25.5-3.25-.25-4.75-1 .5 7.25 1.25 13.25 1.25 14.5v4.5l-1 1.75-.75.5-3.25.25-26 .5-8.75.25-16.5.25H94l-7-.5L64.75 199l-1-2-1.5-4.25-2.75-7.25-12-32-1-2.5-2.25-1.75-4-2.5-2.5-1.75-6-4L21 133.75l-11.25-7.5-3.5-2.25L5 123v-2.5l.75-7.75L7.5 93.5l1.25-14L9 76.75l2-4.5 2.5-4.75L34.75 25l.25-.75 1.25.25 3.75 2 5.75 2.75 6 3L57.5 35l4 2 .75.5 1-.25 3.75-3L73.75 29 78 25.75l9-7 3.75-3 4-3 4-3.25 2.75-2 1.25-1Z"/>
    <path fill="#FDFDFD" d="M53.75 73.25 56.5 75l3.5 2.5 4.5 3 4.25 3 4.75 3.25 3 2L79 90.5l8.25 5.5 5.5 3.5 2.75 2 1.25 1.5 2.5 6.25 2.25 6.25 3.25 8.5 5.5 13.75.75 2.25 4.25.75 12.5 3 11.75 2.75 6.75 1.75 12.5 3L173 154.5h.5l4.75-10.75 4-9.25 2-4.5 1.75-4 2.75-6.25L193 110l2-1.75 4.25-1 1.25.25 2.25 10 4.5 16.5 2 7.25.75 2.75-.25 1.25-5 1.5-13.5 4.5-10 3.5-4 1.5-1 .25h-2.5l-8-1.5-12.25-3-11.5-2.75-9.25-2.25-14.25-3.5-4.5-1h-1.5l-1 1.25-3.75 2.25-7 3.75L95 153l-13 7-11 6-3.5 2.25H67l-1.5-3.5L61.25 154 59 148.25 56.5 142l-2-3.75-1-3.25-1.5-7.75-3.75-21.75-3-16L43.5 82l-.25-.5.75-1.25 7.5-5L53.25 74l.5-.75Z"/>
    <path fill="#FDFDFD" d="m155.5 16.75.75.25-1 10.25-1.5 15.75-1.5 16.25-1 11L151 75l-.25.75-5.25 2.5-7.5 3.25-7 3-9.75 4.25-5 2.25-6.5 2.75L102.5 97l-4.75 2.25-1-.25-1-2-3.5-8.5-2.75-6.25-3.25-7.5-3-7-2.5-6-3-7L76 50.5l.25-1L82.5 47l9.25-4 7-3 15.5-6.5 5.25-2.25 7.75-3.25 8-3.25 6.5-2.75 5-2 6.75-2.5 2-.75ZM23 113.5h.75l-.25 1.25-2.75 5.75-1.75 3-1 2v1.25l2 1 4 2.75 13.5 9 4.25 2.75L47 145.5l2.25 1.75.75.75 1.5 4.5 1.25 4.25 2.75 7.5 3 7.75 4.25 11.25L65 189.5v.5l4-1.25 8-2 6.75-1.5 9-2.25 6.25-1.5 3.5-1.25 3-2.75 2.5-2 3-2.5 3.25-2.5 2.5-2 7-5.5 4.5-3.5 7-5.5 1.25-.5h2.75l23 4.5 1.25.75.75 3.75 2.5 20.5 1.25 11.75V197l-.75.25-35.5 2L113 200h-5l-11-.75-25.25-2.5-5.5-.5-.75-1.25-1.75-5-2.5-6.5-5-12.75-4-10.25-3-9-.75-2.75-3.5-2.5-6.5-4.25-18-12-3.25-2.5-6.5-4.25-3-1.75v-.5l4.75-2.25 3.75-1.75 3.75-2 3-1.5Zm170.5-68 1.25.25 3.75 11L202 68l5 15.25 3 9 1.5 5v1L205 100l-6.25 1.75-5.25 1.5-1.25.25-2.25-1.25-3.5-2.75-3.25-2.75-3-2.75-2.75-2.25-2.5-2.5-2-1.75-4-3.75-1.75-1.75-2-1.75-3.75-3.5-1.25-1.75.25-1.75.25-1 .5-22.75 2-.5L180 47l9-1 4.5-.5ZM34.75 31H35l.25 3 3 6.5 7 14L48 59.75l2.75 5.75 2.5 5.5.25 1.75-6 4-2.75 2-1.75 1.5-.5 1.25-4-2-4.25-2.25L29 74l-5.75-3.75-3-2L18 66.5l.25-1.5 2-4.25 1.75-3.5 2-4.5 1.75-3.5 2.25-5 4-8L34.75 31Zm-17.5 36h.5l1 10.5 3 24.25 1 8L23 111v2l-9 4-4 2-2.25 1.25L8 117l1.5-12.25L11.25 89l1.25-11.5 1-2.75 2-4L17.25 67Zm88-57.75 50.25.25-.25 1.25-15 .25H106l-1.5.75-3.25 2.75-3.5 2.75-4.25 3.25-9 7-3.5 2.75-3.25 2.5-4.75 3.5L65.5 42l-.5 1 1.25.5 5.25 2.25.75.75-.25 1.25-1.5-.5-7-3.25-4-2-9.75-5L45 34.5l-4-2-5-2v-.75l1-1 2.5 1 4 2 5.75 3 3.75 2 4 2 6.25 3 1.25-1.25 3-2.5 4.75-3.5L75.5 32l3-2.25 5.25-4 3.5-2.75 6.5-5 4.5-3.25 3.5-2.75 2.75-2.25.75-.5Z"/>
    <path fill="#FDFDFD" d="m161.5 26.5 7 1 21.25 3.75 19.75 3.5 2 .25.25.25v28l-.25.25h-1.25L210 36.75l-14-2.5-15.25-2.75-19-3.25L161 28l.25-1.25.25-.25Zm60 65h.75v2.75L221 101.5l-3.25 11.5-2.25 8-1.75 6-2.25 8-1.25 3.75-.5-.25V136l1.25-5.75 2-7.5 6.5-22.75.75-3.5.25-1.75h-1l-.25-1.5L220.5 92l1-.5Z"/>
  </g>
  <defs>
    <clipPath id="a">
      <path fill="#fff" d="M0 0h232v208H0z"/>
    </clipPath>
  </defs>
</svg>
